<?xml version="1.0" encoding="UTF-8"?>
<svg id="SVGRoot" width="600px" height="600px" version="1.1" viewBox="0 0 600 600" xmlns="http://www.w3.org/2000/svg">
    <g fill="#cccccc" aria-label=".jvm">
        <path d="m26.614 332.85h46.053v45.173h-46.053z"/>
        <path d="m151.87 202.91h-41.653v-34.32h41.653zm-66.88 193.01q3.52 1.1733 9.0933 1.1733 6.4533 0 11.147-2.64 4.9867-2.3467 4.9867-10.853v-157.23h41.653v159.28q0 11.733-2.64 20.24-2.3467 8.5066-8.5066 14.08-5.8667 5.8667-16.133 8.5067-10.267 2.9333-26.107 2.9333-3.2267 0-6.7467-0.29333-3.52-0.29334-6.7467-0.88z"/>
        <path d="m271.84 378.03h-46.347l-51.92-151.65h43.707l31.973 103.55h0.58667l31.973-103.55h41.36z"/>
        <path d="m341.65 226.37h39.307v20.533h0.58667q8.2133-11.733 19.653-18.187 11.733-6.4533 26.693-6.4533 14.373 0 26.107 5.8667 12.027 5.5733 18.187 19.36 6.7467-9.9733 18.187-17.6 11.733-7.6267 27.573-7.6267 12.027 0 22.293 2.9333 10.267 2.9333 17.6 9.3867 7.3333 6.4533 11.44 17.013 4.1067 10.267 4.1067 24.933v101.49h-41.653v-85.947q0-7.6267-0.58667-14.373-0.58666-6.7467-3.2267-11.733t-7.92-7.92q-4.9867-2.9333-13.787-2.9333t-14.373 3.52q-5.28 3.2267-8.5067 8.8-2.9333 5.28-4.1067 12.32-0.88 6.7467-0.88 13.787v84.48h-41.653v-85.067q0-6.4533-0.29334-13.2-0.29333-6.7467-2.64-12.32-2.0533-5.5733-7.3333-8.8-4.9867-3.52-14.96-3.52-3.2267 0-7.92 1.4667-4.6933 1.1733-9.3867 4.9867-4.4 3.52-7.6267 10.56-3.2267 6.7467-3.2267 17.893v88h-41.653z"/>
    </g>
</svg>
