<svg xmlns="http://www.w3.org/2000/svg" width="16" height="16" viewBox="0 0 16 16">
  <g fill="none" fill-rule="evenodd">
    <polygon fill="#3070B3" fill-opacity="1" points="1 16 16 16 16 9 1 9"/>
    <polygon fill="#9AA7B0" fill-opacity=".8" points="7 1 3 5 7 5"/>
    <polygon fill="#9AA7B0" fill-opacity=".8" points="8 1 8 6 3 6 3 8 13 8 13 1"/>
    <path xmlns="http://www.w3.org/2000/svg" fill="#231F20" fill-opacity=".8" d="M1.39509277,3.58770752 C1.62440186,3.83789062 1.83782861,4 2.28682861,4 C2.81318359,4 3,3.58770752 3,3.29760742 L3,0 L4,0 L4,3.58770752 C4,4.31964111 3.32670898,5 2.45,5 C1.629,5 1.15,4.76264111 0.8,4.31964111 L1.39509277,3.58770752 Z" transform="translate(1 10)"/>
    <polygon xmlns="http://www.w3.org/2000/svg" fill="#231F20" fill-opacity=".8" points="11.6 10 12.496 13.5 13.4 10 14.5 10 12.89 15 12.109 15 10.5 10 11.1 10" transform="translate(-5 0)"/>
    <polygon xmlns="http://www.w3.org/2000/svg" fill="#231F20" fill-opacity=".8" points="0 0 .936 0 2.5 2 3.979 0 5 0 5 5 4 5 4 1.7 2.5 3.5 1 1.7 1 5 0 5" transform="translate(10 10)"/>
  </g>
</svg>
